HIERARCHY
ROOT Hips
{
	OFFSET 0.00 0.00 0.00
	CHANNELS 6 Xposition Yposition Zposition Xrotation Yrotation Zrotation
	JOINT Spine
	{
		OFFSET 0.00000 4.88528 0.00000
		CHANNELS 3 Xrotation Yrotation Zrotation
		JOINT Head
		{
			OFFSET 0.00000 16.49416 0.00000
			CHANNELS 3 Xrotation Yrotation Zrotation
			End Site
			{
				OFFSET 0.00000 4.52755 0.00000
			}
		}
		JOINT LeftShoulder
		{
			OFFSET 0.00000 10.66345 0.00000
			CHANNELS 3 Xrotation Yrotation Zrotation
			JOINT LeftArm
			{
				OFFSET 7.53191 0.00000 0.00000
				CHANNELS 3 Xrotation Yrotation Zrotation
				JOINT LeftForeArm
				{
					OFFSET 10.22920 0.00000 0.00000
					CHANNELS 3 Yrotation Zrotation Xrotation
					JOINT LeftHand
					{
						OFFSET 8.67349 0.00000 0.00000
						CHANNELS 3 Xrotation Yrotation Zrotation
						JOINT LeftHandThumb1
						{
							OFFSET 0.00000 0.00000 0.00000
							CHANNELS 3 Xrotation Zrotation Yrotation
							End Site
							{
								OFFSET 0.00000 0.00000 3.93700
							}
						}
						End Site
						{
							OFFSET 3.93700 0.00000 0.00000
						}
					}
				}
			}
		}
		JOINT RightShoulder
		{
			OFFSET 0.00000 10.66345 0.00000
			CHANNELS 3 Xrotation Yrotation Zrotation
			JOINT RightArm
			{
				OFFSET -7.53191 0.00000 0.00000
				CHANNELS 3 Xrotation Yrotation Zrotation
				JOINT RightForeArm
				{
					OFFSET -10.22920 0.00000 0.00000
					CHANNELS 3 Yrotation Zrotation Xrotation
					JOINT RightHand
					{
						OFFSET -8.67349 0.00000 0.00000
						CHANNELS 3 Xrotation Yrotation Zrotation
						JOINT RightHandThumb1
						{
							OFFSET 0.00000 0.00000 0.00000
							CHANNELS 3 Xrotation Zrotation Yrotation
							End Site
							{
								OFFSET 0.00000 0.00000 3.93700
							}
						}
						End Site
						{
							OFFSET -3.93700 0.00000 0.00000
						}
					}
				}
			}
		}
	}
	JOINT LeftUpLeg
	{
		OFFSET 2.67219 0.00000 0.00000
		CHANNELS 3 Xrotation Yrotation Zrotation
		JOINT LeftLeg
		{
			OFFSET 0.00000 -16.26339 0.00000
			CHANNELS 3 Xrotation Yrotation Zrotation
			JOINT LeftFoot
			{
				OFFSET 0.00000 -14.32816 0.00000
				CHANNELS 3 Xrotation Yrotation Zrotation
				JOINT LeftToeBase
				{
					OFFSET 0.00000 -1.30219 4.85985
					CHANNELS 3 Xrotation Yrotation Zrotation
					End Site
					{
						OFFSET 0.00000 0.00000 2.95275
					}
				}
			}
		}
	}
	JOINT RightUpLeg
	{
		OFFSET -2.67219 0.00000 0.00000
		CHANNELS 3 Xrotation Yrotation Zrotation
		JOINT RightLeg
		{
			OFFSET 0.00000 -16.26339 0.00000
			CHANNELS 3 Xrotation Yrotation Zrotation
			JOINT RightFoot
			{
				OFFSET 0.00000 -14.32816 0.00000
				CHANNELS 3 Xrotation Yrotation Zrotation
				JOINT RightToeBase
				{
					OFFSET 0.00000 -1.30219 4.85985
					CHANNELS 3 Xrotation Yrotation Zrotation
					End Site
					{
						OFFSET 0.00000 0.00000 2.95275
					}
				}
			}
		}
	}
}
MOTION
Frames: 13
Frame Time: 0.008333
 2.4616 32.7674 -7.1094 11.6852 2.5501 -1.0078 -14.4255 -5.6829 -1.8167 13.5981 -1.0686 1.1666 31.9440 33.2509 18.7249 -72.0749 -2.0403 -27.6304 1.6833 0.0000 2.7893 0.3410 -6.4029 3.0551 33.1476 -0.0000 26.2537 -7.4749 -4.4569 -31.2155 -20.5877 -0.4238 37.3551 0.3826 -0.0000 8.7294 -0.2504 3.8596 3.7146 32.8623 0.0000 -24.3270 -4.9115 -1.9321 0.4231 -3.3220 0.0000 -0.0000 -3.6088 11.9266 -13.7568 -4.4758 0.0000 0.0000 -5.8679 -2.4317 0.8806 -2.5815 0.0000 0.0000 -6.8861 -8.7974 2.0973 2.3639 0.0000 0.0000
 2.4636 32.7671 -7.1124 11.6909 2.5972 -1.0210 -14.4365 -5.6871 -1.8369 13.5903 -1.1060 1.2163 31.9941 33.2542 18.7176 -72.1317 -2.0345 -27.6830 1.6639 0.0000 2.8012 0.3470 -6.4250 3.0976 33.1476 -0.0000 26.2537 -7.4821 -4.4856 -31.1944 -20.6085 -0.4628 37.3671 0.3627 -0.0000 8.6940 -0.2476 3.8641 3.6688 32.8623 0.0000 -24.3270 -4.9188 -1.9302 0.4244 -3.3374 0.0000 0.0000 -3.5952 11.8991 -13.7817 -4.4411 0.0000 0.0000 -5.8741 -2.4451 0.8829 -2.5815 -0.0000 0.0000 -6.8864 -8.8324 2.1039 2.3790 0.0000 0.0000
 2.4649 32.7666 -7.1167 11.6963 2.6381 -1.0332 -14.4468 -5.6962 -1.8559 13.5891 -1.1493 1.2513 31.9951 33.2502 18.7241 -72.1593 -2.0369 -27.7323 1.6562 0.0000 2.7918 0.3471 -6.4456 3.0890 33.1476 -0.0000 26.2537 -7.5033 -4.4907 -31.1748 -20.5930 -0.4946 37.3766 0.3484 -0.0000 8.6564 -0.2470 3.8718 3.6537 32.8623 0.0000 -24.3270 -4.9333 -1.9073 0.4269 -3.3390 0.0000 -0.0000 -3.5999 11.8436 -13.7771 -4.4580 -0.0000 -0.0000 -5.8901 -2.4683 0.8862 -2.5646 -0.0000 -0.0000 -6.8994 -8.8392 2.0864 2.3612 0.0000 -0.0000
 2.4659 32.7664 -7.1202 11.7014 2.6764 -1.0470 -14.4575 -5.7046 -1.8673 13.5835 -1.2001 1.2775 32.0481 33.2487 18.6786 -72.2431 -2.0681 -27.7615 1.6810 0.0000 2.7989 0.3409 -6.4468 3.0336 33.1476 -0.0000 26.2537 -7.5053 -4.5141 -31.1722 -20.6244 -0.5298 37.4043 0.3212 -0.0000 8.6398 -0.2363 3.7253 3.6314 32.8623 0.0000 -24.3270 -4.9345 -1.9202 0.4320 -3.3673 -0.0000 -0.0000 -3.5833 11.8344 -13.7686 -4.4561 -0.0000 -0.0000 -5.9007 -2.4615 0.8930 -2.5576 0.0000 -0.0000 -6.9094 -8.8797 2.0541 2.3818 -0.0000 0.0000
 2.4666 32.7665 -7.1248 11.7163 2.7189 -1.0655 -14.4754 -5.7227 -1.8791 13.5816 -1.2161 1.3082 32.0668 33.2434 18.6692 -72.2228 -2.1128 -27.8000 1.7190 0.0000 2.7650 0.3397 -6.4616 3.0157 33.1476 -0.0000 26.2537 -7.5085 -4.5226 -31.1502 -20.6106 -0.5486 37.4047 0.3093 -0.0000 8.6526 -0.2390 3.6944 3.7043 32.8623 0.0000 -24.3270 -4.9556 -1.9404 0.4432 -3.3749 -0.0000 -0.0000 -3.5890 11.8270 -13.7825 -4.3596 -0.0000 -0.0000 -5.9288 -2.4905 0.9052 -2.5368 0.0000 -0.0000 -6.9186 -8.8995 2.0612 2.3852 0.0000 -0.0000
 2.4671 32.7666 -7.1280 11.7174 2.7552 -1.0815 -14.4811 -5.7165 -1.8907 13.5819 -1.2654 1.3367 32.0331 33.2143 18.7054 -72.1760 -2.0997 -27.8411 1.6934 0.0000 2.7754 0.3402 -6.5069 2.9990 33.1476 -0.0000 26.2537 -7.5111 -4.5501 -31.1418 -20.5972 -0.5728 37.4165 0.3029 -0.0000 8.6457 -0.2432 3.6472 3.8173 32.8623 0.0000 -24.3270 -4.9648 -1.9271 0.4507 -3.3761 -0.0000 -0.0000 -3.5889 11.7919 -13.7804 -4.3773 0.0000 -0.0000 -5.9396 -2.5073 0.9154 -2.5224 -0.0000 -0.0000 -6.9216 -8.9079 2.0480 2.4045 0.0000 -0.0000
 2.4686 32.7668 -7.1318 11.7155 2.7905 -1.0896 -14.4792 -5.7331 -1.9021 13.5698 -1.2804 1.3391 32.0436 33.1953 18.6780 -72.1297 -2.1847 -27.8566 1.7846 0.0000 2.7270 0.3408 -6.4992 3.0079 33.1476 -0.0000 26.2537 -7.5222 -4.5489 -31.1306 -20.5794 -0.5952 37.4172 0.2974 -0.0000 8.6933 -0.2506 3.7074 3.8700 32.8623 0.0000 -24.3270 -4.9703 -1.9099 0.4512 -3.3820 -0.0000 0.0000 -3.5765 11.7455 -13.7857 -4.3839 0.0000 -0.0000 -5.9479 -2.5079 0.9164 -2.5079 -0.0000 -0.0000 -6.9248 -8.9472 2.0352 2.3724 -0.0000 -0.0000
 2.4690 32.7672 -7.1350 11.7125 2.8283 -1.1019 -14.4773 -5.7549 -1.9152 13.5584 -1.2899 1.3474 32.0519 33.1893 18.6653 -72.1239 -2.1886 -27.8827 1.7808 0.0000 2.7587 0.3279 -6.4102 2.9345 33.1476 -0.0000 26.2537 -7.4951 -4.5658 -31.1141 -20.6054 -0.6197 37.4153 0.2843 -0.0000 8.7241 -0.2555 3.6944 3.9589 32.8623 0.0000 -24.3270 -4.9764 -1.9267 0.4572 -3.3800 -0.0000 0.0000 -3.5698 11.7329 -13.7866 -4.4212 -0.0000 0.0000 -5.9544 -2.5245 0.9223 -2.4906 0.0000 0.0000 -6.9249 -8.9636 2.0421 2.3787 -0.0000 -0.0000
 2.4698 32.7675 -7.1378 11.7064 2.8605 -1.1134 -14.4704 -5.7513 -1.9268 13.5434 -1.3465 1.3716 32.0183 33.1509 18.6879 -72.1431 -2.1488 -27.9039 1.7914 0.0000 2.8364 0.3303 -6.4388 2.9426 33.1476 -0.0000 26.2537 -7.5228 -4.5805 -31.1075 -20.5631 -0.6250 37.4208 0.2687 -0.0000 8.7222 -0.2577 3.6698 4.0196 32.8623 0.0000 -24.3270 -4.9825 -1.9226 0.4625 -3.3696 0.0000 -0.0000 -3.5738 11.7134 -13.8136 -4.3927 0.0000 0.0000 -5.9554 -2.5462 0.9287 -2.4785 -0.0000 0.0000 -6.9330 -8.9743 2.0395 2.3795 -0.0000 -0.0000
 2.4695 32.7676 -7.1409 11.7048 2.8866 -1.1294 -14.4675 -5.7775 -1.9346 13.5192 -1.3289 1.3677 32.0300 33.1561 18.6748 -72.1723 -2.1182 -27.9312 1.7965 0.0000 2.9550 0.3214 -6.3594 2.8993 33.1476 -0.0000 26.2537 -7.5068 -4.5850 -31.0984 -20.5784 -0.6460 37.4268 0.2544 -0.0000 8.7159 -0.2585 3.6550 4.0484 32.8623 0.0000 -24.3270 -4.9930 -1.9232 0.4748 -3.3598 0.0000 0.0000 -3.5868 11.6817 -13.7895 -4.3348 -0.0000 0.0000 -5.9602 -2.5327 0.9411 -2.4698 -0.0000 -0.0000 -6.9313 -9.0164 2.0516 2.3887 -0.0000 0.0000
 2.4701 32.7677 -7.1435 11.7010 2.9093 -1.1315 -14.4662 -5.7951 -1.9519 13.5043 -1.3218 1.3534 32.0570 33.1579 18.6551 -72.1404 -2.1313 -27.9478 1.8192 0.0000 2.9312 0.3080 -6.3162 2.7970 33.1476 -0.0000 26.2537 -7.4887 -4.5947 -31.0935 -20.5909 -0.6603 37.4333 0.2405 -0.0000 8.6895 -0.2607 3.6646 4.0726 32.8623 0.0000 -24.3270 -4.9976 -1.9281 0.4736 -3.3567 -0.0000 -0.0000 -3.5758 11.6711 -13.8058 -4.3867 0.0000 0.0000 -5.9680 -2.5505 0.9396 -2.4514 0.0000 0.0000 -6.9493 -9.0189 2.0292 2.4006 0.0000 0.0000
 2.4695 32.7677 -7.1453 11.6891 2.9333 -1.1419 -14.4524 -5.8100 -1.9640 13.4782 -1.3127 1.3558 32.0500 33.1452 18.6504 -72.1022 -2.1371 -27.9535 1.8749 0.0000 2.9669 0.3133 -6.4634 2.7812 33.1476 -0.0000 26.2537 -7.5011 -4.6022 -31.0874 -20.5914 -0.6695 37.4400 0.2174 -0.0000 8.6632 -0.2607 3.6507 4.0872 32.8623 0.0000 -24.3270 -4.9935 -1.9471 0.4835 -3.3501 -0.0000 0.0000 -3.5836 11.6767 -13.8270 -4.3945 -0.0000 0.0000 -5.9607 -2.5550 0.9482 -2.4422 -0.0000 -0.0000 -6.9534 -9.0329 2.0277 2.4197 -0.0000 -0.0000
 2.4699 32.7676 -7.1477 11.6849 2.9489 -1.1480 -14.4461 -5.8175 -1.9742 13.4503 -1.3126 1.3474 32.0782 33.1436 18.6381 -72.1176 -2.1059 -27.9810 1.9088 0.0000 2.8379 0.3192 -6.4822 2.8252 33.1476 -0.0000 26.2537 -7.4842 -4.5970 -31.0696 -20.5833 -0.6991 37.4114 0.2437 -0.0000 8.6382 -0.2559 3.4977 4.1867 32.8623 0.0000 -24.3270 -4.9969 -1.9659 0.4872 -3.3440 -0.0000 -0.0000 -3.5912 11.6707 -13.8055 -4.3149 -0.0000 -0.0000 -5.9678 -2.5610 0.9512 -2.4229 0.0000 0.0000 -6.9656 -9.0430 2.0204 2.4272 -0.0000 -0.0000
